<mxfile host="app.diagrams.net" modified="2021-06-14T04:24:03.230Z" agent="5.0 (Windows NT 10.0; Win64; x64) AppleWebKit/537.36 (KHTML, like Gecko) Chrome/88.0.4324.182 Safari/537.36" etag="lz07Ul6He-Li2aWcJC_g" version="14.7.7" type="github">
  <diagram id="E9aR9vi7_5CwR_QAOjYM" name="Page-1">
    <mxGraphModel dx="751" dy="725" grid="1" gridSize="10" guides="1" tooltips="1" connect="1" arrows="1" fold="1" page="1" pageScale="1" pageWidth="3300" pageHeight="4681" math="0" shadow="0">
      <root>
        <mxCell id="0" />
        <mxCell id="1" parent="0" />
        <mxCell id="iVvppemwEB0tFSlLHCeD-3" value="" style="edgeStyle=orthogonalEdgeStyle;rounded=0;orthogonalLoop=1;jettySize=auto;html=1;" parent="1" source="iVvppemwEB0tFSlLHCeD-1" target="iVvppemwEB0tFSlLHCeD-2" edge="1">
          <mxGeometry relative="1" as="geometry" />
        </mxCell>
        <mxCell id="iVvppemwEB0tFSlLHCeD-1" value="FUNCTION check_password(data, username, password)" style="shape=process;whiteSpace=wrap;html=1;backgroundOutline=1;" parent="1" vertex="1">
          <mxGeometry x="330" y="80" width="240" height="70" as="geometry" />
        </mxCell>
        <mxCell id="iVvppemwEB0tFSlLHCeD-5" value="" style="edgeStyle=orthogonalEdgeStyle;rounded=0;orthogonalLoop=1;jettySize=auto;html=1;" parent="1" source="iVvppemwEB0tFSlLHCeD-2" target="iVvppemwEB0tFSlLHCeD-4" edge="1">
          <mxGeometry relative="1" as="geometry" />
        </mxCell>
        <mxCell id="iVvppemwEB0tFSlLHCeD-2" value="rows = LEN(data)" style="rounded=1;whiteSpace=wrap;html=1;" parent="1" vertex="1">
          <mxGeometry x="335" y="200" width="230" height="40" as="geometry" />
        </mxCell>
        <mxCell id="iVvppemwEB0tFSlLHCeD-9" value="" style="edgeStyle=orthogonalEdgeStyle;rounded=0;orthogonalLoop=1;jettySize=auto;html=1;" parent="1" source="iVvppemwEB0tFSlLHCeD-4" target="iVvppemwEB0tFSlLHCeD-7" edge="1">
          <mxGeometry relative="1" as="geometry" />
        </mxCell>
        <mxCell id="iVvppemwEB0tFSlLHCeD-4" value="hash_object = hashlib.md5(password.encode())" style="rounded=1;whiteSpace=wrap;html=1;" parent="1" vertex="1">
          <mxGeometry x="335" y="290" width="230" height="40" as="geometry" />
        </mxCell>
        <mxCell id="iVvppemwEB0tFSlLHCeD-6" value="" style="edgeStyle=orthogonalEdgeStyle;rounded=0;orthogonalLoop=1;jettySize=auto;html=1;" parent="1" source="iVvppemwEB0tFSlLHCeD-7" target="iVvppemwEB0tFSlLHCeD-8" edge="1">
          <mxGeometry relative="1" as="geometry" />
        </mxCell>
        <mxCell id="iVvppemwEB0tFSlLHCeD-7" value="md5_hash = hash_object.hexdigest()" style="rounded=1;whiteSpace=wrap;html=1;" parent="1" vertex="1">
          <mxGeometry x="335" y="370" width="230" height="40" as="geometry" />
        </mxCell>
        <mxCell id="iVvppemwEB0tFSlLHCeD-16" style="edgeStyle=orthogonalEdgeStyle;rounded=0;orthogonalLoop=1;jettySize=auto;html=1;entryX=0.5;entryY=0;entryDx=0;entryDy=0;" parent="1" source="iVvppemwEB0tFSlLHCeD-8" target="iVvppemwEB0tFSlLHCeD-12" edge="1">
          <mxGeometry relative="1" as="geometry" />
        </mxCell>
        <mxCell id="iVvppemwEB0tFSlLHCeD-8" value="password = md5_hash" style="rounded=1;whiteSpace=wrap;html=1;" parent="1" vertex="1">
          <mxGeometry x="335" y="460" width="230" height="40" as="geometry" />
        </mxCell>
        <mxCell id="iVvppemwEB0tFSlLHCeD-10" value="" style="group" parent="1" vertex="1" connectable="0">
          <mxGeometry x="340" y="560" width="230" height="90" as="geometry" />
        </mxCell>
        <mxCell id="iVvppemwEB0tFSlLHCeD-11" value="" style="shape=hexagon;perimeter=hexagonPerimeter2;whiteSpace=wrap;html=1;fixedSize=1;" parent="iVvppemwEB0tFSlLHCeD-10" vertex="1">
          <mxGeometry width="230.00000000000003" height="90" as="geometry" />
        </mxCell>
        <mxCell id="iVvppemwEB0tFSlLHCeD-12" value="i" style="text;html=1;strokeColor=none;fillColor=none;align=center;verticalAlign=middle;whiteSpace=wrap;rounded=0;" parent="iVvppemwEB0tFSlLHCeD-10" vertex="1">
          <mxGeometry x="87.61904761904762" width="43.80952380952381" height="20" as="geometry" />
        </mxCell>
        <mxCell id="iVvppemwEB0tFSlLHCeD-13" value="0" style="text;html=1;strokeColor=none;fillColor=none;align=center;verticalAlign=middle;whiteSpace=wrap;rounded=0;" parent="iVvppemwEB0tFSlLHCeD-10" vertex="1">
          <mxGeometry x="10.952380952380953" y="35" width="43.80952380952381" height="20" as="geometry" />
        </mxCell>
        <mxCell id="iVvppemwEB0tFSlLHCeD-14" value="1" style="text;html=1;strokeColor=none;fillColor=none;align=center;verticalAlign=middle;whiteSpace=wrap;rounded=0;" parent="iVvppemwEB0tFSlLHCeD-10" vertex="1">
          <mxGeometry x="87.61904761904762" y="70" width="43.80952380952381" height="20" as="geometry" />
        </mxCell>
        <mxCell id="iVvppemwEB0tFSlLHCeD-15" value="&amp;lt;rows" style="text;html=1;strokeColor=none;fillColor=none;align=center;verticalAlign=middle;whiteSpace=wrap;rounded=0;" parent="iVvppemwEB0tFSlLHCeD-10" vertex="1">
          <mxGeometry x="164.2857142857143" y="35" width="43.80952380952381" height="20" as="geometry" />
        </mxCell>
        <mxCell id="iVvppemwEB0tFSlLHCeD-20" value="" style="edgeStyle=orthogonalEdgeStyle;rounded=0;orthogonalLoop=1;jettySize=auto;html=1;" parent="1" source="iVvppemwEB0tFSlLHCeD-17" target="iVvppemwEB0tFSlLHCeD-19" edge="1">
          <mxGeometry relative="1" as="geometry" />
        </mxCell>
        <mxCell id="iVvppemwEB0tFSlLHCeD-36" style="edgeStyle=orthogonalEdgeStyle;rounded=0;orthogonalLoop=1;jettySize=auto;html=1;" parent="1" source="iVvppemwEB0tFSlLHCeD-17" target="iVvppemwEB0tFSlLHCeD-28" edge="1">
          <mxGeometry relative="1" as="geometry" />
        </mxCell>
        <mxCell id="iVvppemwEB0tFSlLHCeD-17" value="username == data[i][0]" style="rhombus;whiteSpace=wrap;html=1;" parent="1" vertex="1">
          <mxGeometry x="375.5" y="710" width="160" height="100" as="geometry" />
        </mxCell>
        <mxCell id="iVvppemwEB0tFSlLHCeD-18" value="" style="edgeStyle=orthogonalEdgeStyle;rounded=0;orthogonalLoop=1;jettySize=auto;html=1;" parent="1" source="iVvppemwEB0tFSlLHCeD-11" target="iVvppemwEB0tFSlLHCeD-17" edge="1">
          <mxGeometry relative="1" as="geometry" />
        </mxCell>
        <mxCell id="iVvppemwEB0tFSlLHCeD-23" value="" style="edgeStyle=orthogonalEdgeStyle;rounded=0;orthogonalLoop=1;jettySize=auto;html=1;" parent="1" source="iVvppemwEB0tFSlLHCeD-19" target="iVvppemwEB0tFSlLHCeD-22" edge="1">
          <mxGeometry relative="1" as="geometry" />
        </mxCell>
        <mxCell id="WWMF_62tPETFUldaqYNl-1" style="edgeStyle=orthogonalEdgeStyle;rounded=0;orthogonalLoop=1;jettySize=auto;html=1;" parent="1" source="iVvppemwEB0tFSlLHCeD-19" edge="1">
          <mxGeometry relative="1" as="geometry">
            <mxPoint x="320" y="760" as="targetPoint" />
          </mxGeometry>
        </mxCell>
        <mxCell id="iVvppemwEB0tFSlLHCeD-19" value="password == data[i][3]" style="rhombus;whiteSpace=wrap;html=1;" parent="1" vertex="1">
          <mxGeometry x="385" y="860" width="140" height="100" as="geometry" />
        </mxCell>
        <mxCell id="iVvppemwEB0tFSlLHCeD-21" value="True" style="text;html=1;align=center;verticalAlign=middle;resizable=0;points=[];autosize=1;strokeColor=none;" parent="1" vertex="1">
          <mxGeometry x="464" y="810" width="40" height="20" as="geometry" />
        </mxCell>
        <mxCell id="iVvppemwEB0tFSlLHCeD-25" value="" style="edgeStyle=orthogonalEdgeStyle;rounded=0;orthogonalLoop=1;jettySize=auto;html=1;" parent="1" source="iVvppemwEB0tFSlLHCeD-22" target="iVvppemwEB0tFSlLHCeD-24" edge="1">
          <mxGeometry relative="1" as="geometry" />
        </mxCell>
        <mxCell id="iVvppemwEB0tFSlLHCeD-22" value="login_index = i" style="rounded=1;whiteSpace=wrap;html=1;" parent="1" vertex="1">
          <mxGeometry x="383" y="990" width="145" height="40" as="geometry" />
        </mxCell>
        <mxCell id="iVvppemwEB0tFSlLHCeD-24" value="RETURN login_index" style="rounded=1;whiteSpace=wrap;html=1;" parent="1" vertex="1">
          <mxGeometry x="383" y="1080" width="145" height="40" as="geometry" />
        </mxCell>
        <mxCell id="iVvppemwEB0tFSlLHCeD-26" value="True" style="text;html=1;align=center;verticalAlign=middle;resizable=0;points=[];autosize=1;strokeColor=none;" parent="1" vertex="1">
          <mxGeometry x="460" y="960" width="40" height="20" as="geometry" />
        </mxCell>
        <mxCell id="iVvppemwEB0tFSlLHCeD-27" value="" style="edgeStyle=orthogonalEdgeStyle;rounded=0;orthogonalLoop=1;jettySize=auto;html=1;" parent="1" source="iVvppemwEB0tFSlLHCeD-28" target="iVvppemwEB0tFSlLHCeD-30" edge="1">
          <mxGeometry relative="1" as="geometry" />
        </mxCell>
        <mxCell id="iVvppemwEB0tFSlLHCeD-39" style="edgeStyle=orthogonalEdgeStyle;rounded=0;orthogonalLoop=1;jettySize=auto;html=1;" parent="1" source="iVvppemwEB0tFSlLHCeD-28" edge="1">
          <mxGeometry relative="1" as="geometry">
            <mxPoint x="190" y="605" as="targetPoint" />
            <Array as="points">
              <mxPoint x="90" y="760" />
              <mxPoint x="90" y="605" />
            </Array>
          </mxGeometry>
        </mxCell>
        <mxCell id="iVvppemwEB0tFSlLHCeD-28" value="username == data[i][2]" style="rhombus;whiteSpace=wrap;html=1;" parent="1" vertex="1">
          <mxGeometry x="138" y="710" width="147" height="100" as="geometry" />
        </mxCell>
        <mxCell id="iVvppemwEB0tFSlLHCeD-29" value="" style="edgeStyle=orthogonalEdgeStyle;rounded=0;orthogonalLoop=1;jettySize=auto;html=1;" parent="1" source="iVvppemwEB0tFSlLHCeD-30" target="iVvppemwEB0tFSlLHCeD-33" edge="1">
          <mxGeometry relative="1" as="geometry" />
        </mxCell>
        <mxCell id="WWMF_62tPETFUldaqYNl-4" style="edgeStyle=orthogonalEdgeStyle;rounded=0;orthogonalLoop=1;jettySize=auto;html=1;" parent="1" source="iVvppemwEB0tFSlLHCeD-30" edge="1">
          <mxGeometry relative="1" as="geometry">
            <mxPoint x="90" y="760" as="targetPoint" />
          </mxGeometry>
        </mxCell>
        <mxCell id="iVvppemwEB0tFSlLHCeD-30" value="password == data[i][3]" style="rhombus;whiteSpace=wrap;html=1;" parent="1" vertex="1">
          <mxGeometry x="138" y="860" width="147" height="100" as="geometry" />
        </mxCell>
        <mxCell id="iVvppemwEB0tFSlLHCeD-31" value="True" style="text;html=1;align=center;verticalAlign=middle;resizable=0;points=[];autosize=1;strokeColor=none;" parent="1" vertex="1">
          <mxGeometry x="210" y="810" width="40" height="20" as="geometry" />
        </mxCell>
        <mxCell id="iVvppemwEB0tFSlLHCeD-32" value="" style="edgeStyle=orthogonalEdgeStyle;rounded=0;orthogonalLoop=1;jettySize=auto;html=1;" parent="1" source="iVvppemwEB0tFSlLHCeD-33" target="iVvppemwEB0tFSlLHCeD-34" edge="1">
          <mxGeometry relative="1" as="geometry" />
        </mxCell>
        <mxCell id="iVvppemwEB0tFSlLHCeD-33" value="login_index = i" style="rounded=1;whiteSpace=wrap;html=1;" parent="1" vertex="1">
          <mxGeometry x="140" y="990" width="145" height="40" as="geometry" />
        </mxCell>
        <mxCell id="iVvppemwEB0tFSlLHCeD-34" value="RETURN login_index" style="rounded=1;whiteSpace=wrap;html=1;" parent="1" vertex="1">
          <mxGeometry x="140" y="1080" width="145" height="40" as="geometry" />
        </mxCell>
        <mxCell id="iVvppemwEB0tFSlLHCeD-35" value="True" style="text;html=1;align=center;verticalAlign=middle;resizable=0;points=[];autosize=1;strokeColor=none;" parent="1" vertex="1">
          <mxGeometry x="217" y="960" width="40" height="20" as="geometry" />
        </mxCell>
        <mxCell id="iVvppemwEB0tFSlLHCeD-37" value="False" style="text;html=1;align=center;verticalAlign=middle;resizable=0;points=[];autosize=1;strokeColor=none;" parent="1" vertex="1">
          <mxGeometry x="343" y="740" width="40" height="20" as="geometry" />
        </mxCell>
        <mxCell id="iVvppemwEB0tFSlLHCeD-41" style="edgeStyle=orthogonalEdgeStyle;rounded=0;orthogonalLoop=1;jettySize=auto;html=1;entryX=0;entryY=0.5;entryDx=0;entryDy=0;" parent="1" source="iVvppemwEB0tFSlLHCeD-38" target="iVvppemwEB0tFSlLHCeD-11" edge="1">
          <mxGeometry relative="1" as="geometry" />
        </mxCell>
        <mxCell id="iVvppemwEB0tFSlLHCeD-38" value="i" style="ellipse;whiteSpace=wrap;html=1;aspect=fixed;" parent="1" vertex="1">
          <mxGeometry x="191.5" y="585" width="40" height="40" as="geometry" />
        </mxCell>
        <mxCell id="iVvppemwEB0tFSlLHCeD-40" value="False" style="text;html=1;align=center;verticalAlign=middle;resizable=0;points=[];autosize=1;strokeColor=none;rotation=0;" parent="1" vertex="1">
          <mxGeometry x="98" y="740" width="40" height="20" as="geometry" />
        </mxCell>
        <mxCell id="iVvppemwEB0tFSlLHCeD-42" value="RETURN 0" style="ellipse;whiteSpace=wrap;html=1;" parent="1" vertex="1">
          <mxGeometry x="660" y="565" width="90" height="80" as="geometry" />
        </mxCell>
        <mxCell id="iVvppemwEB0tFSlLHCeD-43" value="" style="edgeStyle=orthogonalEdgeStyle;rounded=0;orthogonalLoop=1;jettySize=auto;html=1;" parent="1" source="iVvppemwEB0tFSlLHCeD-11" target="iVvppemwEB0tFSlLHCeD-42" edge="1">
          <mxGeometry relative="1" as="geometry" />
        </mxCell>
        <mxCell id="WWMF_62tPETFUldaqYNl-2" value="False" style="text;html=1;align=center;verticalAlign=middle;resizable=0;points=[];autosize=1;strokeColor=none;" parent="1" vertex="1">
          <mxGeometry x="343" y="890" width="40" height="20" as="geometry" />
        </mxCell>
        <mxCell id="WWMF_62tPETFUldaqYNl-5" value="False" style="text;html=1;align=center;verticalAlign=middle;resizable=0;points=[];autosize=1;strokeColor=none;rotation=0;" parent="1" vertex="1">
          <mxGeometry x="100" y="890" width="40" height="20" as="geometry" />
        </mxCell>
      </root>
    </mxGraphModel>
  </diagram>
</mxfile>
